<svg width="36" height="30" viewBox="0 0 36 30" fill="none" xmlns="http://www.w3.org/2000/svg">
<path d="M34.8 27.6H33.6V12C33.6 11.3635 33.3471 10.753 32.8971 10.3029C32.447 9.85286 31.8365 9.6 31.2 9.6H21.6V2.4C21.6 1.76348 21.3471 1.15303 20.8971 0.702944C20.447 0.252856 19.8365 0 19.2 0H4.8C4.16348 0 3.55303 0.252856 3.10294 0.702944C2.65286 1.15303 2.4 1.76348 2.4 2.4V27.6H1.2C0.88174 27.6 0.576515 27.7264 0.351472 27.9515C0.126428 28.1765 0 28.4817 0 28.8C0 29.1183 0.126428 29.4235 0.351472 29.6485C0.576515 29.8736 0.88174 30 1.2 30H34.8C35.1183 30 35.4235 29.8736 35.6485 29.6485C35.8736 29.4235 36 29.1183 36 28.8C36 28.4817 35.8736 28.1765 35.6485 27.9515C35.4235 27.7264 35.1183 27.6 34.8 27.6ZM31.2 12V27.6H21.6V12H31.2ZM4.8 2.4H19.2V27.6H4.8V2.4ZM7.2 7.2C7.2 6.88174 7.32643 6.57652 7.55147 6.35147C7.77652 6.12643 8.08174 6 8.4 6H13.2C13.5183 6 13.8235 6.12643 14.0485 6.35147C14.2736 6.57652 14.4 6.88174 14.4 7.2C14.4 7.51826 14.2736 7.82348 14.0485 8.04853C13.8235 8.27357 13.5183 8.4 13.2 8.4H8.4C8.08174 8.4 7.77652 8.27357 7.55147 8.04853C7.32643 7.82348 7.2 7.51826 7.2 7.2ZM16.8 16.8C16.8 17.1183 16.6736 17.4235 16.4485 17.6485C16.2235 17.8736 15.9183 18 15.6 18H10.8C10.4817 18 10.1765 17.8736 9.95147 17.6485C9.72643 17.4235 9.6 17.1183 9.6 16.8C9.6 16.4817 9.72643 16.1765 9.95147 15.9515C10.1765 15.7264 10.4817 15.6 10.8 15.6H15.6C15.9183 15.6 16.2235 15.7264 16.4485 15.9515C16.6736 16.1765 16.8 16.4817 16.8 16.8ZM14.4 22.8C14.4 23.1183 14.2736 23.4235 14.0485 23.6485C13.8235 23.8736 13.5183 24 13.2 24H8.4C8.08174 24 7.77652 23.8736 7.55147 23.6485C7.32643 23.4235 7.2 23.1183 7.2 22.8C7.2 22.4817 7.32643 22.1765 7.55147 21.9515C7.77652 21.7264 8.08174 21.6 8.4 21.6H13.2C13.5183 21.6 13.8235 21.7264 14.0485 21.9515C14.2736 22.1765 14.4 22.4817 14.4 22.8ZM28.8 22.8C28.8 23.1183 28.6736 23.4235 28.4485 23.6485C28.2235 23.8736 27.9183 24 27.6 24H25.2C24.8817 24 24.5765 23.8736 24.3515 23.6485C24.1264 23.4235 24 23.1183 24 22.8C24 22.4817 24.1264 22.1765 24.3515 21.9515C24.5765 21.7264 24.8817 21.6 25.2 21.6H27.6C27.9183 21.6 28.2235 21.7264 28.4485 21.9515C28.6736 22.1765 28.8 22.4817 28.8 22.8ZM24 16.8C24 16.4817 24.1264 16.1765 24.3515 15.9515C24.5765 15.7264 24.8817 15.6 25.2 15.6H27.6C27.9183 15.6 28.2235 15.7264 28.4485 15.9515C28.6736 16.1765 28.8 16.4817 28.8 16.8C28.8 17.1183 28.6736 17.4235 28.4485 17.6485C28.2235 17.8736 27.9183 18 27.6 18H25.2C24.8817 18 24.5765 17.8736 24.3515 17.6485C24.1264 17.4235 24 17.1183 24 16.8Z" fill="black"/>
</svg>
