<svg width="23" height="27" viewBox="0 0 23 27" fill="none" xmlns="http://www.w3.org/2000/svg">
<path d="M2.96484 0.0507812V3.44922H15.0352V0.0507812H2.96484ZM6.49805 0.8125H8.37305L7.43555 2.6875L6.49805 0.8125ZM10.875 0.8125L11.8125 2.6875H9.9375L10.875 0.8125ZM0.152344 6.02734V26.5352H8.47266V6.02734H0.152344ZM9.52734 6.02734V26.5352H17.8477V6.02734H9.52734ZM19.6641 14.2891V19.2109H22.7109V14.2891H19.6641ZM21.1875 15.8125C21.4361 15.8125 21.6746 15.9113 21.8504 16.0871C22.0262 16.2629 22.125 16.5014 22.125 16.75C22.125 16.9986 22.0262 17.2371 21.8504 17.4129C21.6746 17.5887 21.4361 17.6875 21.1875 17.6875C20.9389 17.6875 20.7004 17.5887 20.5246 17.4129C20.3488 17.2371 20.25 16.9986 20.25 16.75C20.25 16.5014 20.3488 16.2629 20.5246 16.0871C20.7004 15.9113 20.9389 15.8125 21.1875 15.8125Z" fill="black"/>
</svg>
