<svg width="30" height="30" viewBox="0 0 30 30" fill="none" xmlns="http://www.w3.org/2000/svg">
<path d="M18.75 18.75H22.5V22.5H18.75V18.75ZM5.625 0H24.375C24.5124 5.15252e-05 24.6481 0.0303097 24.7726 0.0886323C24.897 0.146955 25.0071 0.231916 25.095 0.3375L29.7825 5.9625C30.0019 6.225 30 6.35812 30 6.52875V9.375C30 11.04 29.2763 12.5381 28.125 13.5675V29.0625C28.125 29.3111 28.0262 29.5496 27.8504 29.7254C27.6746 29.9012 27.4361 30 27.1875 30H15V17.8125C15 17.5639 14.9012 17.3254 14.7254 17.1496C14.5496 16.9738 14.3111 16.875 14.0625 16.875H6.5625C6.31386 16.875 6.0754 16.9738 5.89959 17.1496C5.72377 17.3254 5.625 17.5639 5.625 17.8125V30H2.8125C2.56386 30 2.3254 29.9012 2.14959 29.7254C1.97377 29.5496 1.875 29.3111 1.875 29.0625V13.5675C0.72375 12.5363 0 11.04 0 9.375V6.5625C9.86688e-05 6.34322 0.0770608 6.13091 0.2175 5.9625L4.905 0.3375C4.99294 0.231916 5.10302 0.146955 5.22744 0.0886323C5.35187 0.0303097 5.48759 5.15252e-05 5.625 0ZM1.875 7.5V9.375C1.875 10.3696 2.27009 11.3234 2.97335 12.0266C3.67661 12.7299 4.63044 13.125 5.625 13.125C6.61956 13.125 7.57339 12.7299 8.27665 12.0266C8.97991 11.3234 9.375 10.3696 9.375 9.375V7.5H1.875ZM11.25 7.5V9.375C11.25 10.3696 11.6451 11.3234 12.3484 12.0266C13.0516 12.7299 14.0054 13.125 15 13.125C15.9946 13.125 16.9484 12.7299 17.6516 12.0266C18.3549 11.3234 18.75 10.3696 18.75 9.375V7.5H11.25ZM20.625 7.5V9.375C20.625 10.3696 21.0201 11.3234 21.7234 12.0266C22.4266 12.7299 23.3804 13.125 24.375 13.125C25.3696 13.125 26.3234 12.7299 27.0266 12.0266C27.7299 11.3234 28.125 10.3696 28.125 9.375V7.5H20.625ZM6.06375 1.875L2.94 5.625H9.6375L10.8863 1.875H6.06375ZM18.3862 5.625L17.1375 1.875H12.8625L11.6138 5.625H18.3862ZM20.3625 5.625H27.0619L23.9362 1.875H19.1138L20.3625 5.625ZM16.875 17.8125V23.4375C16.875 23.6861 16.9738 23.9246 17.1496 24.1004C17.3254 24.2762 17.5639 24.375 17.8125 24.375H23.4375C23.6861 24.375 23.9246 24.2762 24.1004 24.1004C24.2762 23.9246 24.375 23.6861 24.375 23.4375V17.8125C24.375 17.5639 24.2762 17.3254 24.1004 17.1496C23.9246 16.9738 23.6861 16.875 23.4375 16.875H17.8125C17.5639 16.875 17.3254 16.9738 17.1496 17.1496C16.9738 17.3254 16.875 17.5639 16.875 17.8125ZM13.125 30V18.75H7.5V30H13.125Z" fill="black"/>
</svg>
